<?xml version="1.0" encoding="UTF-8"?>
<svg width="66px" height="49px" viewBox="0 0 66 49" version="1.1" xmlns="http://www.w3.org/2000/svg" xmlns:xlink="http://www.w3.org/1999/xlink">
    <!-- Generator: Sketch 48.2 (47327) - http://www.bohemiancoding.com/sketch -->
    <title>Previous</title>
    <desc>Created with Sketch.</desc>
    <defs>
        <filter x="-3.2%" y="-3.2%" width="106.4%" height="106.4%" filterUnits="objectBoundingBox" id="filter-1">
            <feOffset dx="0" dy="0" in="SourceAlpha" result="shadowOffsetOuter1"></feOffset>
            <feGaussianBlur stdDeviation="7.5" in="shadowOffsetOuter1" result="shadowBlurOuter1"></feGaussianBlur>
            <feColorMatrix values="0 0 0 0 0.0352941176   0 0 0 0 0.0274509804   0 0 0 0 0.0274509804  0 0 0 0.600345335 0" type="matrix" in="shadowBlurOuter1" result="shadowMatrixOuter1"></feColorMatrix>
            <feMerge>
                <feMergeNode in="shadowMatrixOuter1"></feMergeNode>
                <feMergeNode in="SourceGraphic"></feMergeNode>
            </feMerge>
        </filter>
    </defs>
    <g id="Desktop-HD" stroke="none" stroke-width="1" fill="none" fill-rule="evenodd" transform="translate(-844.000000, -762.000000)">
        <g id="Player" filter="url(#filter-1)" transform="translate(370.000000, 162.000000)" fill="#FFFFFF">
            <g id="Controls" transform="translate(0.000000, 550.000000)">
                <g id="Play-Controls" transform="translate(489.000000, 57.000000)">
                    <path d="M17.8042278,7.18195175 C17.5953361,7.06278887 17.357847,7 17.1160238,7 C16.3615897,7 15.75,7.59819697 15.75,8.33611033 L15.75,14.9947452 L2.05422776,7.18195175 C1.84533608,7.06278887 1.607847,7 1.36602378,7 C0.61158968,7 0,7.59819697 0,8.33611033 L0,27.0386721 C0,27.2751998 0.0641946206,27.5074883 0.186025367,27.7118056 C0.566109929,28.3492298 1.40253263,28.564592 2.05422776,28.1928307 L15.75,20.3800372 L15.75,27.0386721 C15.75,27.2751998 15.8141946,27.5074883 15.9360254,27.7118056 C16.3161099,28.3492298 17.1525326,28.564592 17.8042278,28.1928307 L31.5,20.3800372 L31.5,26.125 C31.5,27.3676407 32.5073593,28.375 33.75,28.375 C34.9926407,28.375 36,27.3676407 36,26.125 L36,9.25 C36,8.00735931 34.9926407,7 33.75,7 C32.5073593,7 31.5,8.00735931 31.5,9.25 L31.5,14.9947452 L17.8042278,7.18195175 Z" id="Previous" transform="translate(18.000000, 17.687500) scale(-1, 1) translate(-18.000000, -17.687500) "></path>
                </g>
            </g>
        </g>
    </g>
</svg>